<svg 
 xmlns="http://www.w3.org/2000/svg"
 xmlns:xlink="http://www.w3.org/1999/xlink"
 width="2356px" height="971px">
<defs>
<linearGradient id="PSgrad_0" x1="34.202%" x2="0%" y1="0%" y2="93.969%">
  <stop offset="0%" stop-color="rgb(0,198,255)" stop-opacity="1" />
  <stop offset="55%" stop-color="rgb(0,156,255)" stop-opacity="1" />
  <stop offset="100%" stop-color="rgb(0,114,255)" stop-opacity="1" />
</linearGradient>

</defs>
<path fill-rule="evenodd"  fill="rgb(76, 76, 76)"
 d="M2354.000,650.000 C2354.000,650.000 1331.307,71.028 792.000,401.000 C587.388,526.191 0.000,504.000 0.000,504.000 L97.092,321.999 L113.092,60.001 L729.091,47.001 C729.091,47.001 1639.140,21.951 2079.000,77.000 C2315.412,106.588 2358.893,665.944 2354.000,650.000 Z"/>
<path fill="url(#PSgrad_0)"
 d="M2354.000,650.000 C2354.000,650.000 1331.307,71.028 792.000,401.000 C587.388,526.191 0.000,504.000 0.000,504.000 L97.092,321.999 L113.092,60.001 L729.091,47.001 C729.091,47.001 1639.140,21.951 2079.000,77.000 C2315.412,106.588 2358.893,665.944 2354.000,650.000 Z"/>
<path fill-rule="evenodd"  stroke="rgb(255, 255, 255)" stroke-width="2px" stroke-linecap="butt" stroke-linejoin="miter" opacity="0.302" fill="none"
 d="M134.092,967.000 L568.091,877.000 C568.091,877.000 712.968,850.835 630.091,750.000 C545.521,647.102 291.091,323.999 291.091,323.999 C291.091,323.999 218.190,241.505 337.091,212.000 C455.993,182.492 1525.091,1.001 1525.091,1.001 "/>
</svg>